<svg width="56" height="56" viewBox="0 0 56 56" fill="none" xmlns="http://www.w3.org/2000/svg">
<path d="M19.5976 16.3607C19.1447 15.9077 19.1989 15.1557 19.7414 14.8152C22.1346 13.313 24.9658 12.4443 27.9999 12.4443C36.591 12.4443 43.5554 19.4088 43.5554 27.9999C43.5554 36.591 36.591 43.5554 27.9999 43.5554C19.4088 43.5554 12.4443 36.591 12.4443 27.9999C12.4443 24.3946 13.6708 21.0759 15.7293 18.438C16.0963 17.9676 16.7885 17.9514 17.2104 18.3732C17.5997 18.7625 17.615 19.3851 17.2807 19.8226C15.5478 22.0908 14.5184 24.9251 14.5184 27.9999C14.5184 35.4455 20.5543 41.4814 27.9999 41.4814C35.4455 41.4814 41.4814 35.4455 41.4814 27.9999C41.4814 20.5543 35.4455 14.5184 27.9999 14.5184C25.4204 14.5184 23.0102 15.2428 20.9615 16.4993C20.5259 16.7665 19.959 16.722 19.5976 16.3607Z" fill="black"/>
<path fill-rule="evenodd" clip-rule="evenodd" d="M31.516 30.9828C31.4115 31.2203 31.2219 31.4099 30.9844 31.5144L21.8183 35.5476C21.4268 35.7198 20.9697 35.634 20.6673 35.3316C20.3649 35.0292 20.2792 34.5721 20.4514 34.1807L24.4845 25.0145C24.589 24.777 24.7786 24.5874 25.0161 24.4829L34.1822 20.4498C34.5737 20.2775 35.0308 20.3633 35.3332 20.6657C35.6356 20.9681 35.7214 21.4252 35.5492 21.8167L31.516 30.9828ZM32.5768 23.4222L26.2205 26.2189L23.4238 32.5751L29.78 29.7784L32.5768 23.4222Z" fill="#DB9B15"/>
</svg>
