<svg width="56" height="56" viewBox="0 0 56 56" fill="none" xmlns="http://www.w3.org/2000/svg">
<path fill-rule="evenodd" clip-rule="evenodd" d="M20.21 18.9365C19.5891 19.5116 19.0316 20.0059 18.5361 20.4427C18.4661 20.5043 18.3977 20.5646 18.3305 20.6237C17.9108 20.9933 17.5452 21.3152 17.2169 21.6183C16.4564 22.3203 15.976 22.8504 15.6363 23.4432C14.9553 24.6315 14.7019 26.2979 14.7019 30.5781C14.7019 33.6725 14.8872 35.8939 15.3057 37.5045C15.7165 39.0855 16.329 39.9917 17.1404 40.5739C17.9877 41.1822 19.1974 41.5445 21.0191 41.7323C22.8389 41.9198 25.1089 41.9212 28 41.9212C30.8911 41.9212 33.1612 41.9198 34.981 41.7323C36.8027 41.5445 38.0124 41.1822 38.8597 40.5739C39.671 39.9917 40.2836 39.0855 40.6944 37.5045C41.113 35.8939 41.2981 33.6725 41.2981 30.5781C41.2981 26.2978 41.0451 24.6314 40.3644 23.443C40.0249 22.8502 39.5446 22.3202 38.7843 21.6183C38.4558 21.3149 38.0899 20.9927 37.6697 20.6226C37.603 20.5639 37.5349 20.5039 37.4653 20.4426C36.9699 20.0058 36.4124 19.5115 35.7915 18.9364C35.424 18.6396 35.0432 18.3185 34.6486 17.9857C33.7891 17.2607 32.8637 16.4802 31.8654 15.7749C30.3832 14.7278 29.0407 14.0789 27.9579 14.0789C26.8786 14.0789 25.5545 14.7279 24.0918 15.7766C23.1372 16.461 22.2639 17.2048 21.4434 17.9036C21.0195 18.2647 20.6097 18.6138 20.21 18.9365ZM22.7764 13.9419C24.2819 12.8625 26.113 11.8214 27.9579 11.8214C29.7977 11.8214 31.6437 12.8543 33.168 13.9311C34.2456 14.6923 35.3114 15.5906 36.2038 16.3426C36.5845 16.6634 36.9335 16.9575 37.2382 17.2031C37.2587 17.2195 37.2786 17.2367 37.2978 17.2545C37.9088 17.8212 38.4588 18.309 38.9581 18.7491C39.0259 18.8088 39.0928 18.8678 39.1592 18.9262C39.5774 19.2945 39.966 19.6367 40.3158 19.9596C41.1273 20.7089 41.8104 21.4256 42.3233 22.3209C43.3473 24.1087 43.5556 26.3838 43.5556 30.5781C43.5556 33.7196 43.3723 36.1751 42.8794 38.0723C42.3787 39.9989 41.5366 41.4313 40.1761 42.4079C38.8516 43.3586 37.172 43.7759 35.2125 43.9779C33.264 44.1787 30.8796 44.1787 28.056 44.1787H27.9442C25.1204 44.1787 22.736 44.1787 20.7876 43.9779C18.8281 43.7759 17.1485 43.3586 15.824 42.4079C14.4634 41.4313 13.6214 39.9989 13.1208 38.0723C12.6278 36.1751 12.4445 33.7196 12.4445 30.5781C12.4445 26.3837 12.6531 24.1085 13.6777 22.3207C14.1907 21.4255 14.874 20.7088 15.6857 19.9595C16.0351 19.637 16.4233 19.2952 16.841 18.9274C16.9077 18.8686 16.9752 18.8092 17.0434 18.7491C17.5428 18.309 18.0927 17.8212 18.7037 17.2545C18.723 17.2366 18.743 17.2194 18.7635 17.2029C19.0827 16.9459 19.4553 16.6292 19.8639 16.2817C20.7278 15.5473 21.7529 14.6757 22.7764 13.9419Z" fill="black"/>
<path d="M19.9445 18.3216C10.3445 21.9216 13.6112 35.4883 16.4445 41.8216C18.2778 42.1549 22.7445 42.9214 25.9445 43.3214C29.1445 43.7214 36.9445 42.4882 40.4445 41.8216L42.4445 27.8214C42.7778 26.9882 41.7445 23.6216 34.9445 16.8216C28.1445 10.0216 22.1112 14.9883 19.9445 18.3216Z" fill="black"/>
<path fill-rule="evenodd" clip-rule="evenodd" d="M22.4445 33.9502C22.4445 33.3268 22.9498 32.8214 23.5732 32.8214H32.3247C32.948 32.8214 33.4534 33.3268 33.4534 33.9502C33.4534 34.5735 32.948 35.0789 32.3247 35.0789H23.5732C22.9498 35.0789 22.4445 34.5735 22.4445 33.9502Z" fill="#DB9B15"/>
</svg>
