<svg width="56" height="56" viewBox="0 0 56 56" fill="none" xmlns="http://www.w3.org/2000/svg">
<path d="M23.1941 16.2283C23.7646 15.9506 24.4462 15.9791 25.0092 16.2639C25.2018 16.3565 25.387 16.4633 25.5574 16.5844C27.4688 17.9516 29.3728 19.3331 31.2546 20.7502C31.6991 21.0849 31.9806 21.092 32.4251 20.7359C35.0329 18.6922 37.6555 16.6769 40.2855 14.6688C41.2264 13.9496 41.9598 13.9069 42.7229 14.4552C43.8342 15.2527 43.8416 16.5416 42.6933 17.4318C40.6485 19.0198 38.5816 20.5793 36.522 22.153C35.4848 22.9506 34.4402 23.741 33.403 24.5386C32.0991 25.5355 31.6324 25.5498 30.3211 24.6098C28.4764 23.2853 26.6169 21.975 24.8018 20.6078C24.2906 20.2232 23.972 20.2659 23.4905 20.6362C20.8456 22.6729 18.1786 24.681 15.5115 26.6891C14.9263 27.1306 14.2817 27.3799 13.5631 26.9811C12.8889 26.6108 12.4518 26.0696 12.4444 25.2863C12.437 24.5243 12.9334 24.0543 13.4964 23.62C16.5043 21.3127 19.5121 18.9984 22.52 16.6841C22.7348 16.5203 22.9422 16.3494 23.1793 16.2354C23.1941 16.2283 23.1941 16.2283 23.1941 16.2283Z" fill="black"/>
<path d="M27.1784 33.676C27.1784 35.6682 27.1848 37.6682 27.1784 39.6604C27.1719 41.0456 26.5095 41.9405 25.5191 41.9172C24.5543 41.8938 23.9112 41.03 23.9112 39.6837C23.9048 35.7227 23.9048 31.7616 23.9112 27.8006C23.9112 26.4154 24.5801 25.5204 25.5705 25.5438C26.5352 25.5671 27.1719 26.4309 27.1784 27.7772V33.676Z" fill="black"/>
<path d="M40.2836 33.676C40.2836 31.7071 40.2772 29.7461 40.2836 27.7772C40.2901 26.4387 40.9268 25.5671 41.8915 25.5438C42.8819 25.5204 43.5444 26.4154 43.5508 27.8006C43.5572 31.7616 43.5572 35.7227 43.5508 39.6837C43.5508 41.0222 42.9076 41.8938 41.9429 41.9172C40.9525 41.9405 40.2901 41.0456 40.2836 39.6604C40.2772 37.6604 40.2836 35.6682 40.2836 33.676Z" fill="black"/>
<path d="M35.3628 36.1872C35.3628 37.4381 35.3756 38.689 35.3628 39.94C35.3499 41.1109 34.6762 41.9182 33.733 41.9182C32.7898 41.9182 32.1097 41.1109 32.1033 39.94C32.0904 37.4381 32.0904 34.9362 32.1033 32.4344C32.1097 31.2635 32.7898 30.4562 33.7266 30.4562C34.6698 30.4562 35.3435 31.2635 35.3564 32.4344C35.3756 33.6853 35.3628 34.9362 35.3628 36.1872Z" fill="#DB9B15"/>
<path d="M17.3512 37.0547C17.3512 38.0123 17.364 38.9699 17.3512 39.9275C17.3319 41.0871 16.6761 41.8876 15.7568 41.9175C14.8182 41.9475 14.1045 41.117 14.0917 39.92C14.0788 37.9749 14.0788 36.0297 14.0917 34.0846C14.0981 32.925 14.7667 32.1245 15.6861 32.0945C16.6247 32.0646 17.3319 32.895 17.3512 34.0921C17.364 35.0796 17.3512 36.0671 17.3512 37.0547Z" fill="#DB9B15"/>
</svg>
