<svg width="13" height="16" viewBox="0 0 13 16" fill="none" xmlns="http://www.w3.org/2000/svg">
<path d="M12.5 6.5C12.5 11.1667 6.5 15.1667 6.5 15.1667C6.5 15.1667 0.5 11.1667 0.5 6.5C0.5 4.9087 1.13214 3.38258 2.25736 2.25736C3.38258 1.13214 4.9087 0.5 6.5 0.5C8.0913 0.5 9.61742 1.13214 10.7426 2.25736C11.8679 3.38258 12.5 4.9087 12.5 6.5Z" stroke="#8A8A95" stroke-linecap="round" stroke-linejoin="round"/>
<path d="M6.5 8.5C7.60457 8.5 8.5 7.60457 8.5 6.5C8.5 5.39543 7.60457 4.5 6.5 4.5C5.39543 4.5 4.5 5.39543 4.5 6.5C4.5 7.60457 5.39543 8.5 6.5 8.5Z" stroke="#8A8A95" stroke-linecap="round" stroke-linejoin="round"/>
</svg>
