<svg width="56" height="56" viewBox="0 0 56 56" fill="none" xmlns="http://www.w3.org/2000/svg">
<path fill-rule="evenodd" clip-rule="evenodd" d="M28.0003 29.7761C28.6472 29.7761 29.1716 30.3005 29.1716 30.9474V35.0514C29.1716 35.6982 28.6472 36.2226 28.0003 36.2226C27.3535 36.2226 26.8291 35.6982 26.8291 35.0514V30.9474C26.8291 30.3005 27.3535 29.7761 28.0003 29.7761Z" fill="#DB9B15"/>
<path fill-rule="evenodd" clip-rule="evenodd" d="M12.7846 26.5099C13.1555 25.98 13.8858 25.8512 14.4158 26.2221L14.4342 26.2349C18.0079 28.429 22.7593 29.7802 27.9926 29.7802C33.2226 29.7802 37.9847 28.4307 41.5588 26.2397L41.5682 26.233C42.0921 25.8535 42.8244 25.9707 43.2037 26.4946C43.5832 27.0185 43.4661 27.7508 42.9421 28.1303L42.8968 28.1631C42.8732 28.1801 42.8489 28.1963 42.8242 28.2116C38.8376 30.6673 33.6263 32.1226 27.9926 32.1226C22.3583 32.1226 17.161 30.667 13.1765 28.2115C13.157 28.1995 13.138 28.187 13.1193 28.1738L13.0724 28.141C12.5425 27.7702 12.4136 27.0399 12.7846 26.5099Z" fill="#DB9B15"/>
<path fill-rule="evenodd" clip-rule="evenodd" d="M21.7341 16.6588C21.7341 14.157 23.587 11.913 26.1224 11.913H29.8782C32.4135 11.913 34.2664 14.157 34.2664 16.6588V17.6427C34.2664 18.2895 33.742 18.8139 33.0952 18.8139C32.4483 18.8139 31.9239 18.2895 31.9239 17.6427V16.6588C31.9239 15.2128 30.894 14.2554 29.8782 14.2554H26.1224C25.1065 14.2554 24.0766 15.2128 24.0766 16.6588V17.6427C24.0766 18.2895 23.5522 18.8139 22.9054 18.8139C22.2585 18.8139 21.7341 18.2895 21.7341 17.6427V16.6588Z" fill="#DB9B15"/>
<path fill-rule="evenodd" clip-rule="evenodd" d="M17.5414 20.9725C15.6799 22.6303 14.7869 25.3944 14.7869 30.1057C14.7869 34.817 15.6799 37.5812 17.5414 39.2388C19.4441 40.9334 22.6497 41.7447 28 41.7447C33.3513 41.7447 36.5569 40.9334 38.4593 39.2388C40.3206 37.5812 41.2131 34.8172 41.2131 30.1057C41.2131 25.3942 40.3206 22.6302 38.4593 20.9725C36.5569 19.2781 33.3513 18.4667 28 18.4667C22.6497 18.4667 19.4441 19.2781 17.5414 20.9725ZM15.9835 19.2232C18.576 16.9144 22.5626 16.1243 28 16.1243C33.4383 16.1243 37.4248 16.9144 40.0172 19.2233C42.6508 21.5688 43.5556 25.2099 43.5556 30.1057C43.5556 35.0015 42.6508 38.6426 40.0172 40.9882C37.4248 43.2971 33.4383 44.0871 28 44.0871C22.5626 44.0871 18.576 43.2969 15.9835 40.9882C13.3497 38.6426 12.4445 35.0016 12.4445 30.1057C12.4445 25.2098 13.3497 21.5687 15.9835 19.2232Z" fill="black"/>
</svg>
