<svg width="13" height="13" viewBox="0 0 13 13" fill="none" xmlns="http://www.w3.org/2000/svg">
<path d="M12.5986 4.57433C12.516 4.31853 12.2891 4.13695 12.0207 4.11274L8.37484 3.78168L6.93322 0.407379C6.8269 0.160004 6.58479 0 6.31584 0C6.04688 0 5.80477 0.160004 5.69845 0.407905L4.25684 3.78168L0.610426 4.11274C0.342525 4.13747 0.116203 4.31853 0.0330429 4.57433C-0.0501171 4.83012 0.0267269 5.11066 0.229364 5.2875L2.98522 7.70441L2.17257 11.284C2.1131 11.5471 2.2152 11.8193 2.43363 11.9771C2.551 12.0619 2.68837 12.105 2.8268 12.105C2.94628 12.105 3.0647 12.0729 3.17102 12.0093L6.31584 10.1297L9.4596 12.0093C9.68961 12.1477 9.97962 12.135 10.1975 11.9771C10.4159 11.8187 10.5181 11.5466 10.4586 11.284L9.64592 7.70441L12.4018 5.28803C12.6044 5.11066 12.6818 4.83065 12.5986 4.57433Z" fill="#F59E0B"/>
</svg>
